<svg width="58" height="54" viewBox="0 0 58 54" fill="none" xmlns="http://www.w3.org/2000/svg">
<g clip-path="url(#clip0_1452_644)">
<path d="M50.0668 29.3851C50.7457 28.7523 51.127 27.8945 51.127 27.0001C51.127 26.1058 50.7457 25.2479 50.0668 24.6151L36.3981 11.8824C35.7181 11.2492 34.7958 10.8936 33.8341 10.8936C32.8723 10.8936 31.95 11.2492 31.27 11.8824C30.5899 12.5155 30.2079 13.3742 30.2079 14.2696C30.2079 15.165 30.5899 16.0237 31.27 16.6569L38.752 23.6251H10.8757C9.91432 23.6251 8.99229 23.9807 8.31247 24.6137C7.63265 25.2466 7.25073 26.105 7.25073 27.0001C7.25073 27.8952 7.63265 28.7537 8.31247 29.3866C8.99229 30.0196 9.91432 30.3751 10.8757 30.3751L38.752 30.3751L31.27 37.3411C30.9333 37.6546 30.6662 38.0268 30.4839 38.4364C30.3017 38.846 30.2079 39.285 30.2079 39.7284C30.2079 40.1717 30.3017 40.6108 30.4839 41.0204C30.6662 41.43 30.9333 41.8021 31.27 42.1156C31.6067 42.4291 32.0064 42.6778 32.4464 42.8475C32.8863 43.0171 33.3579 43.1045 33.8341 43.1045C34.3103 43.1045 34.7818 43.0171 35.2217 42.8475C35.6617 42.6778 36.0614 42.4291 36.3981 42.1156L50.0668 29.3851Z" fill="#FFFFFF"/>
</g>
<defs>
<clipPath id="clip0_1452_644">
<rect width="54" height="58" fill="white" transform="matrix(0 1 -1 0 58 0)"/>
</clipPath>
</defs>
</svg>
