<svg width="30" height="30" viewBox="0 0 30 30" fill="none" xmlns="http://www.w3.org/2000/svg">
<g clip-path="url(#clip0_1455_514)">
<path d="M27.5719 6.53723L18.3544 2.14598C16.3254 0.934024 13.8 0.91252 11.7506 2.08973L2.42944 6.53723C2.39446 6.55475 2.35819 6.5735 2.32444 6.59348C0.112407 7.85828 -0.655523 10.6768 0.609282 12.8888C1.03801 13.6387 1.66866 14.2531 2.42944 14.6622L5.00071 15.8873V22.0122C5.00223 24.7511 6.78436 27.1708 9.39946 27.9848C11.2193 28.5112 13.1063 28.769 15.0007 28.7498C16.8948 28.771 18.7818 28.5154 20.602 27.991C23.2171 27.1771 24.9992 24.7574 25.0007 22.0185V15.8847L27.5008 14.6897V24.9997C27.5008 25.6901 28.0604 26.2497 28.7507 26.2497C29.4411 26.2497 30.0007 25.6901 30.0007 24.9997V9.99971C30.009 8.53188 28.8501 7.1759 27.5719 6.53723ZM22.5007 22.0185C22.5013 23.6567 21.4384 25.1058 19.8757 25.5972C18.2909 26.0501 16.6487 26.2698 15.0007 26.2497C13.3526 26.2698 11.7104 26.0501 10.1257 25.5972C8.56291 25.1058 7.50002 23.6567 7.50067 22.0185V17.0785L11.6469 19.0536C12.67 19.6611 13.8384 19.9803 15.0282 19.9773C16.1607 19.9853 17.2742 19.6855 18.2495 19.1098L22.5007 17.0785V22.0185ZM26.5007 12.406L17.0732 16.906C15.7587 17.6714 14.1294 17.6497 12.8357 16.8497L3.61192 12.4622C2.58377 11.9078 2.19975 10.6249 2.75416 9.59682C2.94166 9.24912 3.2228 8.9609 3.56569 8.76473L12.9344 4.28975C14.2493 3.52604 15.8778 3.54766 17.1719 4.346L26.3894 8.73725C27.0673 9.11365 27.4914 9.82445 27.5006 10.5998C27.5019 11.3342 27.1237 12.0171 26.5007 12.406Z" fill="#D3B25F"/>
</g>
<defs>
<clipPath id="clip0_1455_514">
<rect width="30" height="30" fill="white"/>
</clipPath>
</defs>
</svg>
