<svg width="28" height="28" viewBox="0 0 28 28" fill="none" xmlns="http://www.w3.org/2000/svg">
<g clip-path="url(#clip0_1134_261)">
<mask id="mask0_1134_261" style="mask-type:luminance" maskUnits="userSpaceOnUse" x="0" y="0" width="28" height="28">
<path d="M0 0L28 0V28H0L0 0Z" fill="white"/>
</mask>
<g mask="url(#mask0_1134_261)">
<path fill-rule="evenodd" clip-rule="evenodd" d="M0 14.0782C0 21.0397 5.05517 26.8263 11.6667 28V17.8885H8.16667L8.16667 14H11.6667V10.8885C11.6667 7.3885 13.9218 5.44483 17.1115 5.44483C18.1218 5.44483 19.2115 5.6 20.2218 5.75517V9.33333H18.4333C16.7218 9.33333 16.3333 10.1885 16.3333 11.2782V14H20.0667L19.4448 17.8885H16.3333V28C22.9448 26.8263 28 21.0397 28 14.0782C28 6.335 21.7 0 14 0C6.3 0 0 6.335 0 14.0782Z" fill="#000000"/>
</g>
</g>
<defs>
<clipPath id="clip0_1134_261">
<rect width="28" height="28" fill="white"/>
</clipPath>
</defs>
</svg>
