<svg width="100" height="100" viewBox="0 0 100 100" fill="none" xmlns="http://www.w3.org/2000/svg">
<g clip-path="url(#clip0_837_1481)">
<path d="M61.7189 1.56237C62.3383 1.78141 62.3383 1.78141 62.9701 2.00488C71.792 5.42052 79.1951 11.9606 83.1224 20.6282C85.32 25.7826 86.4051 30.9036 86.3527 36.4989C86.351 36.8592 86.3492 37.2195 86.3474 37.5907C86.3428 38.4719 86.3364 39.3531 86.3283 40.2342C86.5932 40.2116 86.858 40.1889 87.1309 40.1656C90.0293 40.0251 92.1609 40.4603 94.5314 42.1874C97.423 45.1568 97.853 48.2624 98.2375 52.2694C98.3152 53.0714 98.3994 53.8724 98.4842 54.6736C98.5348 55.1847 98.5854 55.6958 98.6376 56.2224C98.7068 56.9187 98.7068 56.9187 98.7775 57.6291C98.911 61.1894 98.911 61.1894 97.7404 62.4983C95.6225 63.8388 94.3065 64.4607 91.7971 64.0624C90.9464 63.7181 90.1587 63.3317 89.3602 62.8798C88.6161 62.4418 88.6161 62.4418 87.5002 62.1092C87.5441 62.315 87.588 62.5208 87.6333 62.7329C88.0695 64.839 88.4448 66.9518 88.788 69.0749C88.8331 69.353 88.8781 69.6311 88.9245 69.9176C89.0192 70.5031 89.1138 71.0886 89.2085 71.6741C90.0836 77.0777 91.0523 82.4412 92.2544 87.7826C92.7856 90.206 93.2681 92.4429 92.9689 94.9217C91.5117 96.5568 89.5369 97.17 87.5353 97.9537C86.3606 98.4035 86.3606 98.4035 85.4021 98.9089C82.1063 100.525 77.8128 100.652 74.28 99.7008C73.4388 99.3276 72.6668 98.9054 71.8752 98.4374C67.7162 96.4579 64.0621 95.7875 59.5812 97.267C58.18 97.8193 56.8495 98.4804 55.5193 99.1851C52.5826 100.683 48.2079 100.483 45.0746 99.6047C43.9517 99.1301 42.8756 98.614 41.797 98.0467C37.9783 96.3287 34.7192 95.9317 30.6749 97.267C29.2737 97.8193 27.9433 98.4804 26.613 99.1851C23.7894 100.625 19.5038 100.451 16.4385 99.7328C15.4858 99.3483 14.5877 98.903 13.672 98.4374C12.7046 98.0359 11.7363 97.6373 10.7668 97.2411C7.95694 96.0783 7.95694 96.0783 7.03142 94.9217C6.58346 92.515 7.23532 89.9541 7.74553 87.6021C7.89789 86.8681 8.05022 86.134 8.20253 85.4C8.32258 84.8312 8.32258 84.8312 8.44505 84.251C9.88299 77.4264 11.1469 70.632 11.9776 63.7043C12.1095 62.8905 12.1095 62.8905 12.5002 62.1092C11.9219 62.3604 11.3442 62.613 10.7668 62.8661C10.2841 63.0768 10.2841 63.0768 9.79173 63.2918C9.00638 63.6058 9.00638 63.6058 8.59392 64.0624C6.05361 64.5103 4.37119 63.8596 2.24626 62.4983C1.05032 61.1342 1.16157 59.4144 1.20428 57.6601C1.30927 56.4347 1.41555 55.2097 1.53596 53.9858C1.61085 53.2049 1.67379 52.4229 1.73662 51.641C2.05911 48.28 2.53832 45.0228 5.09527 42.6042C7.14927 40.959 8.98413 40.1213 11.6457 40.1854C12.0269 40.1925 12.408 40.1995 12.8008 40.2068C13.0883 40.2158 13.3758 40.2249 13.672 40.2342C13.6584 39.7428 13.6449 39.2513 13.6308 38.745C13.4244 28.1309 16.1931 18.9219 23.4377 10.9374C33.1063 1.01111 48.4906 -3.18864 61.7189 1.56237Z" fill="#F1EEF1"/>
<path d="M31.7231 52.9762C32.2258 52.9712 32.2258 52.9712 32.7387 52.9662C33.2885 52.9697 33.2885 52.9697 33.8494 52.9734C34.2363 52.9713 34.6232 52.9693 35.0218 52.9672C36.3034 52.962 37.5848 52.9654 38.8665 52.9694C39.7553 52.9686 40.6441 52.9674 41.5329 52.966C43.3968 52.9642 45.2606 52.9668 47.1245 52.9722C49.5166 52.9789 51.9086 52.9751 54.3007 52.968C56.1364 52.9638 57.972 52.9652 59.8077 52.9682C60.6899 52.969 61.572 52.968 62.4542 52.9653C63.6859 52.9623 64.9174 52.9668 66.1492 52.9734C66.5157 52.971 66.8822 52.9686 67.2598 52.9662C67.595 52.9695 67.9302 52.9728 68.2755 52.9762C68.5667 52.9766 68.8579 52.9771 69.158 52.9775C70.1347 53.1663 70.4841 53.5255 71.093 54.2969C71.3159 55.4689 71.1911 56.6278 71.093 57.8125C71.0704 58.1025 71.0477 58.3926 71.0244 58.6914C70.4338 62.9034 67.9853 67.8156 64.843 70.7031C64.6325 70.8985 64.4221 71.0939 64.2052 71.2952C62.6572 72.6563 62.6572 72.6563 61.718 72.6563C61.6818 73.3088 61.6818 73.3088 61.6448 73.9746C61.1879 77.4225 59.4513 80.0043 56.7879 82.1762C53.7314 84.2691 50.3026 84.3827 46.7125 83.8425C44.0207 83.1434 41.9924 81.3994 40.2336 79.2969C39.2256 77.4769 38.4304 75.6233 38.1249 73.5565C37.8284 72.4206 37.4863 72.2302 36.4983 71.6309C32.5892 68.8756 29.8757 63.8062 29.0444 59.1309C28.9324 58.0678 28.8306 57.0251 28.8079 55.957C28.7978 55.669 28.7877 55.381 28.7773 55.0842C29.0516 53.3994 30.1482 52.9786 31.7231 52.9762Z" fill="#FC8086"/>
<path d="M15.9425 40.8446C18.834 42.348 20.3897 44.3321 21.5398 47.3384C22.1042 49.1879 22.2412 51.0318 22.3634 52.954C22.3937 53.3354 22.4239 53.7169 22.455 54.1098C22.9355 60.5243 22.9355 60.5243 22.0461 61.8407C21.7319 62.0582 21.4176 62.2758 21.0939 62.4999C20.886 62.6444 20.678 62.7889 20.4637 62.9378C18.9638 63.899 17.8317 64.3715 16.0158 64.0624C15.6532 63.7965 15.2907 63.5307 14.9172 63.2567C13.4017 62.3356 12.6482 62.3995 10.9468 62.6708C10.105 62.8506 10.105 62.8506 9.37516 63.5009C8.27059 64.2948 7.37807 64.2974 6.03807 64.2485C4.28287 63.9081 2.74176 63.0635 1.56266 61.7186C1.04095 59.0875 1.27538 56.6345 1.53596 53.9858C1.61084 53.2049 1.67378 52.4229 1.73661 51.641C2.05911 48.28 2.53832 45.0228 5.09526 42.6042C8.27052 40.0609 12.0817 39.3016 15.9425 40.8446Z" fill="#D6CFD5"/>
<path d="M92.749 41.0159C95.2654 42.4562 96.7073 44.5668 97.6562 47.2659C97.9243 48.9261 98.0767 50.5961 98.2373 52.2698C98.315 53.0718 98.3992 53.8728 98.484 54.674C98.5346 55.1851 98.5853 55.6962 98.6374 56.2228C98.6836 56.687 98.7297 57.1512 98.7773 57.6295C98.9108 61.1898 98.9108 61.1898 97.7402 62.4987C95.6223 63.8392 94.3063 64.4611 91.7969 64.0628C90.9732 63.6984 90.1931 63.2857 89.4028 62.8543C88.2929 62.3167 87.538 62.2943 86.3281 62.5003C85.6572 62.9103 84.9863 63.3204 84.317 63.7332C82.9899 64.3379 81.8176 64.1367 80.4688 63.6721C79.2084 62.9728 78.0053 62.2609 77.3438 60.9378C77.3589 59.8814 77.3998 58.8418 77.4658 57.7884C77.485 57.4765 77.5043 57.1646 77.5241 56.8433C78.2532 45.7597 78.2532 45.7597 81.8115 42.4319C84.9119 39.7251 88.9824 39.3209 92.749 41.0159Z" fill="#D7D0D6"/>
<path d="M68.7254 25.1953C71.0475 26.419 72.4831 28.3514 73.8036 30.5664C74.605 33.395 74.661 36.0821 73.4373 38.7939C71.8371 41.5898 69.6461 43.5066 66.516 44.3588C63.7107 44.9016 61.6836 44.6242 59.1536 43.2388C56.9554 41.711 55.0894 39.6981 54.2967 37.1093C53.9569 34.1476 53.9436 31.4393 55.6151 28.894C58.9878 24.8078 63.5576 23.1851 68.7254 25.1953Z" fill="#685E68"/>
<path d="M87.5 62.1094C87.9935 64.4209 88.4106 66.7419 88.7878 69.075C88.8329 69.3531 88.8779 69.6312 88.9243 69.9177C89.019 70.5032 89.1137 71.0887 89.2083 71.6742C90.0834 77.0779 91.0521 82.4413 92.2543 87.7828C92.7855 90.2062 93.2679 92.443 92.9688 94.9219C91.7714 96.2733 90.3331 96.8529 88.6719 97.5098C88.2771 97.6679 87.8823 97.826 87.4756 97.9889C87.0969 98.1369 86.7183 98.285 86.3281 98.4375C85.677 98.6976 85.0259 98.9579 84.375 99.2188C84.4203 98.4702 84.4203 98.4702 84.4666 97.7066C84.4645 94.8067 83.7605 92.0466 83.1285 89.232C82.7574 87.5745 82.4018 85.9138 82.0465 84.2529C81.9763 83.9251 81.906 83.5973 81.8336 83.2596C80.3735 76.3929 79.4652 69.4943 78.9062 62.5C79.1333 62.6219 79.3604 62.7437 79.5944 62.8693C80.8938 63.4815 82.1668 63.7491 83.5938 63.6719C87.2909 62.1094 87.2909 62.1094 87.5 62.1094Z" fill="#E2DEE2"/>
<path d="M87.8662 40.0879C90.4952 40.1167 92.4178 40.5977 94.5312 42.1875C97.4188 45.1651 97.8523 48.2564 98.2373 52.2696C98.315 53.0715 98.3992 53.8726 98.484 54.6738C98.5346 55.1849 98.5853 55.696 98.6374 56.2226C98.6836 56.6868 98.7297 57.151 98.7773 57.6292C98.9108 61.1895 98.9108 61.1895 97.7402 62.4985C95.6308 63.8336 94.2983 64.4017 91.7969 64.0625C90.8203 63.6719 90.8203 63.6719 90.2344 63.2813C90.2344 63.0235 90.2344 62.7656 90.2344 62.5C90.75 62.2422 91.2656 61.9844 91.7969 61.7188C91.8717 57.9705 91.8766 54.2466 91.5039 50.5127C91.4798 50.2328 91.4557 49.9529 91.4309 49.6645C91.1622 47.2736 90.3779 45.1729 88.7573 43.364C88.5358 43.1933 88.3142 43.0226 88.0859 42.8467C87.8518 42.6619 87.6176 42.4771 87.3764 42.2867C87.1594 42.1251 86.9424 41.9634 86.7188 41.7969C86.4045 41.5552 86.0903 41.3135 85.7666 41.0645C85.5652 40.9195 85.3638 40.7744 85.1562 40.625C85.8675 39.9138 86.9063 40.117 87.8662 40.0879Z" fill="#BAAFB9"/>
<path d="M56.6406 53.125C58.5106 53.096 60.3805 53.0748 62.2506 53.0606C62.8868 53.0547 63.523 53.0467 64.1591 53.0366C65.0735 53.0224 65.9877 53.0157 66.9022 53.0106C67.1866 53.0045 67.4711 52.9985 67.7642 52.9922C69.7349 52.9916 69.7349 52.9916 70.6877 53.6715C71.5068 54.9331 71.2133 56.3694 71.0937 57.8125C71.0598 58.2476 71.0598 58.2476 71.0251 58.6914C70.4345 62.9034 67.986 67.8156 64.8437 70.7031C64.6333 70.8985 64.4228 71.0939 64.2059 71.2952C62.6579 72.6562 62.6579 72.6562 61.7187 72.6562C61.7131 72.2446 61.7074 71.8329 61.7015 71.4087C61.6787 69.8718 61.6486 68.3351 61.6162 66.7983C61.6033 66.135 61.5923 65.4716 61.5834 64.8082C61.5702 63.8509 61.5498 62.894 61.528 61.9369C61.5255 61.6435 61.523 61.35 61.5205 61.0476C61.4656 59.0528 61.0828 57.6352 60.1562 55.8594C59.234 54.9652 59.234 54.9652 58.2031 54.2969C57.681 53.9079 57.16 53.5176 56.6406 53.125Z" fill="#564F57"/>
<path d="M33.0971 53.0108C33.3902 53.0124 33.6834 53.0141 33.9854 53.0158C34.9208 53.0223 35.8559 53.037 36.7913 53.052C37.4258 53.0578 38.0603 53.0632 38.6948 53.068C40.2495 53.0809 41.804 53.1011 43.3586 53.1252C42.5146 53.7631 41.6691 54.3838 40.7952 54.9807C39.234 56.4218 38.6368 58.1152 38.5022 60.1953C38.4863 60.7758 38.4762 61.3564 38.4713 61.9371C38.4642 62.2454 38.4572 62.5537 38.45 62.8713C38.429 63.8462 38.4157 64.821 38.4026 65.7961C38.3896 66.4611 38.3761 67.1262 38.3622 67.7912C38.3291 69.4129 38.303 71.0346 38.2805 72.6564C36.7319 71.7597 35.599 70.8458 34.3743 69.5314C34.1935 69.3618 34.0127 69.1921 33.8265 69.0172C32.2821 67.4482 31.4224 65.6617 30.5413 63.6721C30.4232 63.4078 30.3052 63.1435 30.1836 62.8713C29.2268 60.6166 28.86 58.4083 28.8079 55.9572C28.7978 55.6692 28.7877 55.3812 28.7773 55.0844C28.9055 54.2971 28.9055 54.2971 29.3107 53.6691C30.489 52.8332 31.7071 52.9812 33.0971 53.0108Z" fill="#695F69"/>
<path d="M51.9531 53.1249C54.7063 52.9184 56.8486 52.8388 59.1324 54.5196C60.7658 55.9601 61.6084 57.1908 61.7789 59.358C61.7839 59.6249 61.7889 59.8918 61.7941 60.1668C61.8004 60.4722 61.8066 60.7776 61.8131 61.0923C61.8307 62.4937 61.8465 63.8951 61.8555 65.2967C61.8619 66.0308 61.8726 66.7649 61.8876 67.4989C61.9885 72.4782 61.9801 76.9318 58.4717 80.8593C56.095 82.9869 53.4698 84.0505 50.293 84.0087C49.7703 84.0034 49.7703 84.0034 49.2371 83.998C48.9732 83.9935 48.7094 83.989 48.4375 83.9843C49.2188 83.203 49.2188 83.203 50.6348 82.5927C53.3066 81.2884 55.258 78.9413 56.3927 76.2138C56.8714 74.6243 56.8152 73.0085 56.81 71.3607C56.812 70.98 56.8141 70.5992 56.8162 70.2069C56.8187 69.4056 56.8182 68.6042 56.8149 67.8028C56.8115 66.5794 56.8228 65.3567 56.8352 64.1334C56.8358 63.3524 56.8356 62.5714 56.8344 61.7904C56.8388 61.4266 56.8432 61.0627 56.8477 60.6879C56.8242 58.4891 56.556 57.2069 55.0781 55.4687C54.0758 54.5886 53.0629 53.8647 51.9531 53.1249Z" fill="#ED6262"/>
<path d="M9.375 40.2344C12.8838 40.0207 15.4861 40.232 18.3472 42.3722C21.4788 45.1788 22.1074 48.9313 22.3633 52.9542C22.3935 53.3356 22.4237 53.717 22.4548 54.11C22.9354 60.5244 22.9354 60.5244 22.0459 61.8409C21.7317 62.0584 21.4175 62.2759 21.0938 62.5001C20.8858 62.6446 20.6778 62.7891 20.4636 62.938C18.9734 63.8929 17.8227 64.3838 16.0156 64.0626C15.0879 63.2813 15.0879 63.2813 14.4531 62.5001C14.7079 62.355 14.9627 62.21 15.2252 62.0606C16.1155 61.3845 16.1155 61.3845 16.1957 60.2784C16.124 57.5166 15.9589 54.7767 15.6982 52.0264C15.671 51.7235 15.6437 51.4207 15.6157 51.1086C15.243 47.6268 14.4072 44.5666 11.7188 42.1876C10.4753 41.434 10.4753 41.434 9.375 41.0157C9.375 40.7579 9.375 40.5001 9.375 40.2344Z" fill="#BBB0BA"/>
<path d="M38.7453 28.3932C40.3638 29.2746 41.3614 30.3783 42.1877 32.0309C42.3859 34.201 42.4856 36.1006 41.5285 38.0856C40.1024 39.6274 38.8712 40.8532 36.7128 41.1084C34.1123 41.1948 32.5665 40.6492 30.6475 38.905C29.1285 37.1647 29.0038 35.4095 29.1109 33.154C29.3917 31.4598 29.9552 30.4195 31.2502 29.2966C33.6763 27.5962 35.9823 27.1419 38.7453 28.3932Z" fill="#695F69"/>
<path d="M62.5 24.6092C65.4177 24.4129 67.8323 24.5011 70.3125 26.1717C72.4447 28.0841 73.9886 30.208 74.3546 33.1068C74.5001 36.0284 73.9811 38.2372 72.2656 40.6248C70.4698 42.5763 68.6999 44.0456 65.9714 44.2167C65.3528 44.2031 65.3528 44.2031 64.7217 44.1893C64.3042 44.1822 63.8868 44.1752 63.4567 44.1679C62.9831 44.1543 62.9831 44.1543 62.5 44.1404C63.2458 43.6433 64.0019 43.1612 64.7705 42.7C66.8166 41.2156 68.3674 39.5502 69.1406 37.1092C69.4998 33.4242 69.1959 30.8033 66.9189 27.8563C65.6387 26.4244 64.2513 25.7547 62.5 24.9998C62.5 24.8709 62.5 24.742 62.5 24.6092Z" fill="#564F57"/>
<path d="M56.6406 53.1248C57.7882 53.1038 58.9354 53.0883 60.083 53.076C60.5713 53.0662 60.5713 53.0662 61.0695 53.0562C61.3829 53.0536 61.6964 53.0511 62.0193 53.0485C62.3078 53.0444 62.5962 53.0403 62.8934 53.0361C63.6719 53.1248 63.6719 53.1248 64.8438 53.9061C65.4842 57.9839 64.5653 61.5335 62.8906 65.2342C62.7617 65.3631 62.6328 65.492 62.5 65.6248C62.4663 66.1493 62.4582 66.6755 62.4619 67.2011C62.4631 67.517 62.4644 67.833 62.4657 68.1585C62.4689 68.4906 62.4722 68.8227 62.4756 69.1649C62.4773 69.4985 62.4791 69.8321 62.4809 70.1758C62.4855 71.0025 62.4926 71.8293 62.5 72.6561C62.2422 72.6561 61.9844 72.6561 61.7188 72.6561C61.7131 72.2444 61.7074 71.8327 61.7015 71.4086C61.6787 69.8716 61.6486 68.3349 61.6162 66.7981C61.6033 66.1348 61.5923 65.4714 61.5834 64.808C61.5702 63.8507 61.5498 62.8939 61.528 61.9368C61.5255 61.6433 61.523 61.3498 61.5205 61.0474C61.4656 59.0527 61.0828 57.635 60.1563 55.8592C59.234 54.9651 59.234 54.9651 58.2031 54.2967C57.681 53.9077 57.16 53.5174 56.6406 53.1248Z" fill="#6A5D66"/>
<path d="M49.2186 57.8125C50.2196 57.9102 50.2196 57.9102 51.1718 58.2031C52.0515 59.9626 51.635 62.3823 51.6348 64.341C51.6356 65.2309 51.6427 66.1206 51.6501 67.0105C51.6513 67.5741 51.6521 68.1376 51.6524 68.7012C51.654 69.2158 51.6556 69.7304 51.6573 70.2606C51.5624 71.4844 51.5624 71.4844 50.7811 72.2656C49.0016 72.0486 49.0016 72.0486 48.4374 71.4844C48.3932 70.5371 48.3733 69.6015 48.3718 68.6539C48.3705 68.3702 48.3692 68.0864 48.3678 67.7941C48.3659 67.1929 48.365 66.5916 48.365 65.9904C48.3642 65.0687 48.3571 64.1472 48.3497 63.2256C48.3485 62.6424 48.3477 62.0593 48.3474 61.4761C48.3446 61.1994 48.3418 60.9227 48.3389 60.6376C48.348 58.6831 48.348 58.6831 49.2186 57.8125Z" fill="#EE6262"/>
<path d="M35.1562 28.125C37.5272 27.9615 38.7509 28.069 40.625 29.6875C42.0423 31.1795 42.3086 32.3761 42.3828 34.375C42.3111 36.3744 42.0195 37.555 40.625 39.0625C38.6708 40.8261 37.3711 41.0648 34.7656 41.0157C35.0557 40.7981 35.3457 40.5806 35.6445 40.3565C37.1656 39.0774 38.5781 37.7452 38.765 35.6995C38.8444 32.4104 38.8444 32.4104 37.1094 29.6875C36.0902 28.7802 36.0902 28.7802 35.1562 28.125Z" fill="#585159"/>
</g>
<defs>
<clipPath id="clip0_837_1481">
<rect width="100" height="100" fill="white"/>
</clipPath>
</defs>
</svg>
