<svg width="40" height="40" viewBox="0 0 40 40" fill="none" xmlns="http://www.w3.org/2000/svg">
<g clip-path="url(#clip0_1477_707)">
<path d="M38.8331 37.6184L31.4031 39.925C30.9809 40.0563 30.5239 40.0145 30.1326 39.8089C29.7413 39.6032 29.4477 39.2505 29.3164 38.8284C29.1851 38.4062 29.2269 37.9492 29.4326 37.5579C29.6382 37.1666 29.9909 36.873 30.4131 36.7417L32.4864 36.0984L30.9564 31.5984C30.6352 31.6397 30.3119 31.662 29.9881 31.665C28.1699 31.6613 26.4028 31.0629 24.9563 29.9613C23.5098 28.8597 22.4633 27.3152 21.9764 25.5634L21.7647 24.9384L23.4314 19.9967H37.6664L37.9997 21.0084C38.528 22.8031 38.431 24.7241 37.7245 26.4564C37.0181 28.1888 35.7441 29.6298 34.1114 30.5434L35.6631 35.105L37.8297 34.4384C38.2519 34.3071 38.7089 34.3489 39.1002 34.5545C39.4915 34.7602 39.7851 35.1129 39.9164 35.535C40.0477 35.9572 40.0059 36.4142 39.8002 36.8055C39.5946 37.1968 39.2419 37.4904 38.8197 37.6217L38.8331 37.6184ZM24.4264 16.6667H36.5381L34.9281 11.8867C34.5415 10.6409 33.6868 9.59368 32.5439 8.96517C31.4009 8.33666 30.0588 8.1759 28.7997 8.51669L22.9264 10.1534C23.1648 10.4556 23.3825 10.7735 23.5781 11.105C24.5057 12.8016 24.806 14.7707 24.4264 16.6667ZM17.6197 10.3067L11.1981 8.51669C9.94818 8.17192 8.61333 8.3248 7.47376 8.94322C6.33418 9.56164 5.47852 10.5975 5.0864 11.8334L3.46307 16.6667H21.0314L21.0647 16.5684C21.2571 15.9311 21.3203 15.2618 21.2506 14.5998C21.1809 13.9378 20.9797 13.2964 20.6589 12.7132C20.338 12.1299 19.9039 11.6166 19.382 11.2034C18.8601 10.7902 18.261 10.4853 17.6197 10.3067ZM1.97473 21.095C1.4681 22.8866 1.58157 24.7967 2.29674 26.5157C3.01191 28.2346 4.28684 29.6616 5.91473 30.565L4.3414 35.1117L2.1664 34.435C1.95738 34.3694 1.73747 34.3455 1.51924 34.3648C1.301 34.3842 1.0887 34.4463 0.894475 34.5477C0.700246 34.649 0.527885 34.7877 0.387234 34.9557C0.246582 35.1236 0.140395 35.3177 0.0747336 35.5267C0.0090727 35.7357 -0.0147756 35.9556 0.00455033 36.1739C0.0238763 36.3921 0.085998 36.6044 0.187369 36.7986C0.288739 36.9928 0.427374 37.1652 0.595356 37.3059C0.763339 37.4465 0.95738 37.5527 1.1664 37.6184L8.5964 39.925C9.01854 40.0563 9.47553 40.0145 9.86686 39.8089C10.2582 39.6032 10.5518 39.2505 10.6831 38.8284C10.8143 38.4062 10.7726 37.9492 10.5669 37.5579C10.3612 37.1666 10.0085 36.873 9.5864 36.7417L7.5264 36.1L9.08473 31.6C9.39379 31.6397 9.70484 31.662 10.0164 31.6667C11.8183 31.6622 13.5703 31.0738 15.0096 29.9897C16.4489 28.9056 17.4981 27.3841 17.9997 25.6534L19.9081 20H2.34307L1.97473 21.095ZM25.9214 6.50003C26.1182 6.59896 26.3326 6.65792 26.5523 6.67348C26.772 6.68905 26.9926 6.66091 27.2014 6.59071C27.4101 6.5205 27.6029 6.40962 27.7685 6.26446C27.9342 6.11931 28.0694 5.94276 28.1664 5.74503L29.8331 2.41169C30.0307 2.01608 30.063 1.55817 29.923 1.13872C29.7829 0.719262 29.482 0.372611 29.0864 0.175025C28.6908 -0.0225614 28.2329 -0.0548977 27.8134 0.0851294C27.394 0.225157 27.0473 0.526077 26.8497 0.921692L25.1831 4.25502C25.0835 4.4508 25.0237 4.66431 25.0069 4.88329C24.9902 5.10226 25.0169 5.32239 25.0855 5.53102C25.1541 5.73964 25.2633 5.93265 25.4068 6.09894C25.5502 6.26524 25.7251 6.40154 25.9214 6.50003ZM11.8414 5.74503C12.039 6.14174 12.3861 6.44373 12.8063 6.58453C13.0144 6.65425 13.2342 6.68231 13.4531 6.66709C13.672 6.65188 13.8858 6.59369 14.0822 6.49586C14.2787 6.39802 14.4539 6.26246 14.598 6.0969C14.742 5.93134 14.852 5.73903 14.9217 5.53094C14.9915 5.32286 15.0195 5.10309 15.0043 4.88417C14.9891 4.66524 14.9309 4.45146 14.8331 4.25502L13.1664 0.921692C13.0686 0.725803 12.9331 0.551103 12.7678 0.407565C12.6024 0.264028 12.4104 0.154464 12.2027 0.0851294C11.7832 -0.0548977 11.3253 -0.0225614 10.9297 0.175025C10.5341 0.372611 10.2332 0.719262 10.0932 1.13872C9.95314 1.55817 9.98548 2.01608 10.1831 2.41169L11.8414 5.74503ZM19.9997 2.49309e-05C19.5577 2.49309e-05 19.1338 0.17562 18.8212 0.48818C18.5087 0.800741 18.3331 1.22466 18.3331 1.66669V5.00003C18.3331 5.44205 18.5087 5.86598 18.8212 6.17854C19.1338 6.4911 19.5577 6.66669 19.9997 6.66669C20.4418 6.66669 20.8657 6.4911 21.1782 6.17854C21.4908 5.86598 21.6664 5.44205 21.6664 5.00003V1.66669C21.6664 1.22466 21.4908 0.800741 21.1782 0.48818C20.8657 0.17562 20.4418 2.49309e-05 19.9997 2.49309e-05Z" fill="#ef4444"/>
</g>
<defs>
<clipPath id="clip0_1477_707">
<rect width="40" height="40" fill="white"/>
</clipPath>
</defs>
</svg>
