<svg width="28" height="28" viewBox="0 0 28 28" fill="none" xmlns="http://www.w3.org/2000/svg">
<path fill-rule="evenodd" clip-rule="evenodd" d="M7.26359 1.68643C5.78406 1.68643 4.36509 2.27403 3.3187 3.32002C2.2723 4.36601 1.68416 5.78475 1.68359 7.26429L1.68359 22.1443C1.68359 23.6242 2.27148 25.0435 3.31794 26.0899C4.36439 27.1364 5.78369 27.7243 7.26359 27.7243H22.1436C23.6231 27.7237 25.0419 27.1356 26.0879 26.0892C27.1339 25.0428 27.7215 23.6238 27.7215 22.1443V7.26429C27.7209 5.78512 27.133 4.3667 26.0871 3.32078C25.0412 2.27485 23.6228 1.687 22.1436 1.68643L7.26359 1.68643ZM23.7486 7.27286C23.7486 7.6991 23.5793 8.10788 23.2779 8.40928C22.9765 8.71068 22.5677 8.88 22.1415 8.88C21.7152 8.88 21.3064 8.71068 21.005 8.40928C20.7036 8.10788 20.5343 7.6991 20.5343 7.27286C20.5343 6.84662 20.7036 6.43784 21.005 6.13644C21.3064 5.83504 21.7152 5.66572 22.1415 5.66572C22.5677 5.66572 22.9765 5.83504 23.2779 6.13644C23.5793 6.43784 23.7486 6.84662 23.7486 7.27286ZM14.7057 10.2471C13.5236 10.2471 12.3899 10.7167 11.5541 11.5526C10.7182 12.3885 10.2486 13.5222 10.2486 14.7043C10.2486 15.8864 10.7182 17.0201 11.5541 17.856C12.3899 18.6918 13.5236 19.1614 14.7057 19.1614C15.8878 19.1614 17.0215 18.6918 17.8574 17.856C18.6933 17.0201 19.1629 15.8864 19.1629 14.7043C19.1629 13.5222 18.6933 12.3885 17.8574 11.5526C17.0215 10.7167 15.8878 10.2471 14.7057 10.2471ZM8.10359 14.7043C8.10359 12.9539 8.79895 11.2751 10.0367 10.0374C11.2744 8.79964 12.9532 8.10429 14.7036 8.10429C16.454 8.10429 18.1328 8.79964 19.3705 10.0374C20.6082 11.2751 21.3036 12.9539 21.3036 14.7043C21.3036 16.4547 20.6082 18.1335 19.3705 19.3712C18.1328 20.6089 16.454 21.3043 14.7036 21.3043C12.9532 21.3043 11.2744 20.6089 10.0367 19.3712C8.79895 18.1335 8.10359 16.4547 8.10359 14.7043Z" fill="#000000"/>
</svg>
