<svg width="40" height="40" viewBox="0 0 40 40" fill="none" xmlns="http://www.w3.org/2000/svg">
<g clip-path="url(#clip0_1477_709)">
<path d="M37.1743 4.78333L33.3726 12.4867C30.641 9.56833 26.9726 7.55333 22.841 6.90833L24.416 3.71667C25.5476 1.42333 27.8376 0 30.3943 0H34.1993C35.3526 0 36.406 0.585 37.0143 1.565C37.6243 2.545 37.6843 3.74833 37.1743 4.78333ZM17.1576 6.90833L15.5826 3.71667C14.451 1.42333 12.161 0 9.60429 0H5.83763C4.68429 0 3.63096 0.585 3.02263 1.56333C2.41263 2.545 2.35429 3.74833 2.86429 4.78333L6.65096 12.4617C9.37929 9.55667 13.0393 7.55167 17.1576 6.90833ZM35.001 25C35.001 33.2717 28.271 40 20.001 40C11.731 40 4.99929 33.2717 4.99929 25C4.99929 16.7283 11.7293 10 19.9993 10C28.2693 10 35.001 16.7283 35.001 25ZM26.9293 24.0167C26.9293 23.5067 26.486 22.9433 25.7693 22.9433H22.2026L21.2576 19.3183C21.1076 18.7433 20.5926 18.3433 19.9993 18.3333C19.4076 18.345 18.891 18.7433 18.741 19.3183L17.796 22.9433H14.2293C13.5126 22.9433 13.0693 23.505 13.0693 24.0167C13.0693 24.6183 13.4876 25.125 13.9676 25.3917L16.451 26.7717L15.3493 29.7767C15.136 30.3583 15.3293 31.0117 15.8243 31.385C16.331 31.7667 17.0293 31.7617 17.5293 31.3733L19.9993 29.4633L22.4693 31.3733C22.971 31.76 23.6693 31.765 24.1743 31.385C24.6693 31.0117 24.8626 30.36 24.6493 29.7767L23.5476 26.7717L26.031 25.3917C26.511 25.125 26.9293 24.6183 26.9293 24.0167Z" fill="#ef4444"/>
</g>
<defs>
<clipPath id="clip0_1477_709">
<rect width="40" height="40" fill="white"/>
</clipPath>
</defs>
</svg>
